<svg width="32" height="32" viewBox="0 0 32 32" fill="none" xmlns="http://www.w3.org/2000/svg">
<path d="M31.5773 14.9646L32 13.6371L30.6252 13.6806C29.9812 13.6569 29.361 13.4396 28.8395 13.0564H29.0252C29.8627 13.0524 30.6291 12.5744 31.0005 11.8238L31.605 10.5319C31.1309 10.5359 30.6568 10.5082 30.1866 10.449C29.7363 10.3423 29.3334 10.0974 29.0291 9.74977C28.6182 9.31121 28.0494 9.06233 27.4489 9.05841C27.2158 9.05841 26.9827 9.09785 26.7575 9.16897C26.7891 9.06233 26.8168 8.95569 26.8366 8.84505C26.9314 8.07465 26.7141 7.2964 26.2361 6.68406L25.1931 5.4001L24.5531 6.90134C24.4504 7.11467 24.2963 7.30035 24.0988 7.43467C23.9882 6.89739 23.7274 6.40751 23.3402 6.02035C22.6923 5.35665 21.8034 4.98529 20.875 4.99319C20.7131 4.99319 20.5511 5.00504 20.3931 5.02875L19.1447 5.27368C19.2514 4.85492 19.4212 4.45591 19.6504 4.0885L20.3378 3.01788L18.6074 3.17986L18.0543 1.99467L16.9877 2.57541L16 1.59961L15.0123 2.57541L13.9457 2.02233L13.3926 3.17986L11.6622 2.98232L12.3496 4.05689C12.5788 4.4243 12.7486 4.82331 12.8553 5.24208L11.6702 5.00899H11.6306C11.4647 4.98529 11.2988 4.97343 11.1328 4.97343C10.2045 4.96554 9.31552 5.3369 8.66768 6.00059C8.27656 6.39171 8.00792 6.88949 7.90123 7.43467C7.71161 7.3043 7.55753 7.12652 7.45482 6.91714L6.81086 5.40406L5.76 6.69195C5.28988 7.3043 5.0805 8.07865 5.17136 8.84505C5.19111 8.95569 5.21877 9.06233 5.25037 9.16897C5.02518 9.09785 4.7921 9.05841 4.55902 9.05841C3.95852 9.06233 3.38963 9.31121 2.97877 9.74977C2.67852 10.0934 2.2795 10.3384 1.83309 10.449C1.35902 10.5201 0.87704 10.5478 0.395062 10.5319L0.983704 11.8435C1.35506 12.5942 2.12148 13.0722 2.95902 13.0762H3.14469C2.63111 13.4514 2.01877 13.6687 1.38272 13.6964L0 13.6371L0.422716 14.9646C0.738766 16.0035 1.63555 16.766 2.71407 16.9043C2.60346 17.6035 2.16098 18.208 1.52889 18.5241L0.470123 18.9546L1.03902 19.9462C1.50914 20.6771 2.31902 21.1117 3.1842 21.1038C3.40938 21.1038 3.63457 21.0801 3.8558 21.0327C3.91111 21.2737 3.98222 21.5146 4.06123 21.7478C4.25877 22.2692 4.27062 22.8381 4.10074 23.3675L3.58716 24.446L4.73679 24.7502C4.99358 24.8174 5.26222 24.849 5.52691 24.849C5.71654 24.849 5.90222 24.8292 6.0879 24.7858C6.22222 24.7542 6.35654 24.7146 6.48296 24.6633C6.62914 24.928 6.81482 25.173 7.0242 25.3902C7.75902 26.1448 8.802 26.528 10.1254 26.528H11.0696L9.122 27.3378L10.5995 28.0687C11.1961 28.3611 11.8045 28.6258 12.4247 28.8589L12.2469 29.3724L12.7566 29.6055C13.602 29.9374 14.4988 30.123 15.4074 30.1546H16.6202C17.525 30.123 18.4178 29.9334 19.2593 29.6016L19.7531 29.3724L19.5793 28.8589C20.2074 28.6178 20.8237 28.3453 21.4242 28.041L22.8741 27.3378L20.9304 26.5478H21.8785C23.202 26.5478 24.2489 26.1527 24.9798 25.41C25.1931 25.1927 25.3748 24.9478 25.521 24.683C25.6474 24.7344 25.7818 24.7739 25.9161 24.8055C26.1018 24.849 26.2874 24.8687 26.477 24.8687C26.7418 24.8687 27.0104 24.8332 27.2672 24.77L28.4207 24.4658L27.919 23.407C27.7294 22.8698 27.7373 22.2811 27.9388 21.7478C28.0218 21.5067 28.0889 21.2618 28.1442 21.0169C28.3654 21.0643 28.5946 21.088 28.8198 21.088C29.6928 21.0959 30.5066 20.6455 30.9689 19.9028L31.5298 18.923L30.4869 18.4964C29.8548 18.1803 29.4123 17.5759 29.3018 16.8766C30.3802 16.7344 31.277 15.9759 31.5931 14.933L31.5773 14.9646Z" fill="white"></path>
<path d="M20.7488 19.1604H11.2673V22.7159C11.2673 24.1777 12.3221 25.0863 13.8826 25.0863C15.1863 25.0863 15.53 25.1377 16.012 25.6196C16.3162 25.2918 16.7468 25.1061 17.1972 25.1139V25.0586L17.4974 24.1342L16.9878 23.5771C16.7823 23.6404 16.569 23.6641 16.3557 23.6522C16.0357 23.6482 15.7196 23.6166 15.4075 23.5534H15.3088C15.2653 23.5534 15.2653 23.5534 15.2534 23.5771L15.1942 23.6759L15.0875 23.8537L14.8821 23.8063L13.9695 23.593L13.8431 23.7984V23.8221L13.9537 23.9445L13.9063 24.1025C13.8234 24.2962 13.7048 24.47 13.5547 24.6201L13.3256 24.865L13.1162 24.6043L12.9621 24.4107C12.7962 24.1934 12.7566 23.909 12.8515 23.6522L12.5947 23.7589L12.4802 23.5061L12.417 23.3282C12.255 22.953 12.3774 22.5184 12.7053 22.2814L13.4402 21.8863L14.1394 22.0246C14.1394 21.9574 14.1829 21.7164 14.2026 21.6571H14.1631L13.768 21.8073L13.373 21.5386C13.2939 21.4596 13.29 21.3293 13.373 21.2463L13.7482 20.6774L12.7962 19.4922L14.2223 20.0532L14.3211 19.9347L14.5186 19.6977L14.7438 19.9109C14.8031 19.9702 14.8426 20.0414 14.8623 20.1243C15.2574 20.2823 15.9882 20.7446 16.0475 21.4952L15.8223 21.5861C15.85 21.6255 15.8856 21.6571 15.929 21.6769L16.972 21.7796L17.0668 21.752C17.2446 21.6848 17.4342 21.6493 17.6238 21.6453C17.8134 21.6453 17.9991 21.6888 18.169 21.7718C18.2441 21.7441 18.327 21.7282 18.4061 21.7243H18.4574C19.0145 21.7243 19.295 22.1431 19.5162 22.4749L19.6307 22.6409C19.8243 22.9174 20.0811 23.3204 20.093 23.3362L20.2075 23.5139L20.0653 23.6798C19.935 23.8537 19.7295 23.9525 19.5122 23.9525C19.449 23.9564 19.3858 23.9564 19.3226 23.9525C19.2673 23.9406 19.212 23.9248 19.1566 23.9011C19.1566 23.9564 19.1566 24.0236 19.125 24.0789L18.9631 25.0112C20.0377 24.7939 20.7962 23.83 20.7527 22.7318L20.7488 19.1604ZM11.2554 18.872H18.6391C18.3389 18.556 18.2362 18.1017 18.3705 17.6868C18.2718 17.6394 18.1769 17.5762 18.0939 17.5051C17.8055 17.7184 16.9088 18.3584 16.6954 18.5204L16.648 18.552L13.7482 18.0384H13.689C13.5942 18.0424 13.4994 18.0424 13.4046 18.0384C13.3769 18.1688 13.2623 18.2597 13.132 18.2597H13.0846C12.9305 18.232 12.8238 18.0858 12.8475 17.9318V17.8686C12.4722 17.5999 12.2945 17.1337 12.3932 16.6833V16.632L12.4366 16.6004C12.4366 16.6004 12.492 16.5609 12.567 16.5174L12.3577 16.4858C12.2786 16.47 12.2273 16.3989 12.2391 16.3199C12.251 16.2409 12.3221 16.1895 12.4011 16.2014H12.405L12.9068 16.2804L12.9542 14.5145L13.7009 13.7243L14.167 14.7041L13.6772 16.4029L14.1196 16.474C14.1986 16.4897 14.25 16.5609 14.2382 16.6399C14.2263 16.711 14.167 16.7584 14.0959 16.7584H14.0722L13.7127 16.6992V16.7268C13.7522 16.7979 13.8115 16.8533 13.8866 16.8888L16.095 16.9243L16.6598 16.3673C16.2293 16.2172 15.9211 15.8379 15.8698 15.3836C15.5932 15.277 15.368 15.0715 15.2416 14.8068C15.135 14.5579 15.1152 14.2774 15.1902 14.0167C14.8426 13.8784 14.5266 13.669 14.2698 13.4004H10.9907C11.1488 13.7876 11.2396 14.1984 11.2554 14.6133V18.872Z" fill="#FCE527"></path>
<path d="M14.2856 20.7129C14.2381 20.7129 14.1947 20.7484 14.1907 20.7959V20.7998C14.1868 20.8511 14.2263 20.8986 14.2777 20.9025H14.2816C14.3369 20.9025 14.3764 20.8591 14.3764 20.8077C14.3764 20.7523 14.3369 20.7129 14.2856 20.7129Z" fill="#222220"></path>
<path d="M14.2816 20.709C14.2855 20.709 14.2855 20.7129 14.2855 20.7129C14.2895 20.7129 14.2895 20.709 14.2935 20.709H14.2816ZM20.7368 27.188L20.1917 26.9786L20.3418 26.4136L20.5077 25.7973C19.7611 26.1806 18.9788 26.4887 18.1729 26.7179C17.7779 26.8284 17.4934 26.8798 17.4934 26.8798V27.2788C17.0075 27.3579 16.5176 27.4013 16.0238 27.4052H15.9803C15.4865 27.4013 14.9966 27.3579 14.5107 27.2788V26.8838C14.5107 26.8838 14.2223 26.8284 13.8272 26.7179C13.0213 26.4887 12.2391 26.1806 11.4924 25.7973L11.6544 26.4136L11.8084 26.9786L11.2593 27.188L10.6667 27.4132C11.4806 27.8359 12.3299 28.1875 13.207 28.464L12.9976 29.0329C13.9497 29.3964 14.969 29.5741 15.9882 29.5504H16.0119C17.0311 29.5741 18.0504 29.3964 19.0025 29.0329L18.7971 28.464C19.6702 28.1875 20.5195 27.8359 21.3334 27.4132L20.7368 27.188ZM11.3265 27.4487L12.2114 27.1524L11.9467 26.2833C12.5275 26.5716 13.1279 26.8127 13.7482 27.0023L13.3136 28.1875C12.6302 28.0057 11.9625 27.7568 11.3265 27.4487ZM16.0238 29.27L16.004 29.2541C15.1349 29.2502 14.2697 29.1316 13.4322 28.9025L13.9655 27.4566C14.6292 27.6225 15.3127 27.7134 16 27.7173H16.0435C16.7309 27.7095 17.4143 27.6225 18.0781 27.4566L18.6114 28.9025C17.7699 29.1396 16.8968 29.262 16.0238 29.27ZM18.7181 28.2112V28.1993L18.2835 27.0141C18.9038 26.8245 19.5043 26.5836 20.085 26.2952L19.8203 27.1643L20.7171 27.4645C20.0771 27.7766 19.4055 28.0295 18.7181 28.2112ZM16.0001 4.63786C16.8929 4.61416 17.7699 4.88279 18.4968 5.40033C18.6115 4.81563 18.8287 4.25465 19.1408 3.74502L18.244 3.84774L17.7779 2.84823L16.8731 3.3144L16.0001 2.44922L15.127 3.3144L14.2223 2.84823L13.7561 3.84774L12.8593 3.74502C13.1715 4.25465 13.3887 4.81563 13.5033 5.40033C14.2302 4.88279 15.1072 4.61416 16.0001 4.63786ZM13.7166 4.19539L13.9655 4.22304L14.0722 3.99786L14.3843 3.32625L14.965 3.6265L15.1902 3.74107L15.3719 3.57514L16.0001 2.93909L16.6282 3.57514L16.8099 3.75292L17.0351 3.63835L17.6119 3.33811L17.9279 4.00971L18.0347 4.2349L18.2835 4.20724L18.5206 4.17959C18.4258 4.39687 18.3428 4.62206 18.2756 4.85119C16.8495 4.12033 15.1547 4.12033 13.7285 4.85119C13.6613 4.62206 13.5783 4.39687 13.4835 4.17959L13.7166 4.19539ZM27.7177 12.7919L27.611 12.6616C26.8762 11.7252 26.1769 10.8364 24.9286 10.4294C24.9799 10.386 25.0313 10.3464 25.0866 10.3109C25.6792 9.97508 26.0979 9.39836 26.2323 8.73068C26.2994 8.1262 26.1296 7.52179 25.7582 7.03981L25.3631 6.54599L25.1143 7.13463C25.1143 7.17018 24.6757 8.11436 23.7907 8.11436H23.53C23.5775 7.49413 23.3523 6.88179 22.9137 6.43931C22.3804 5.89413 21.6456 5.58993 20.8831 5.59388C20.7409 5.59388 20.5987 5.60574 20.4604 5.62549L19.8559 5.74401L20.2313 6.23783C20.5236 6.6329 20.7883 7.31635 20.4762 7.68376C20.3261 7.81413 20.1562 7.91685 19.9705 7.98796C19.5755 8.17364 19.0066 8.43836 19.0066 9.10204C19.0066 9.53268 19.3423 9.983 19.9468 10.3662C21.7286 11.4961 22.8307 12.6616 23.3088 13.9732C24.0476 15.9721 23.0836 17.11 22.1473 17.7104L21.7286 17.9791L22.096 18.3148C22.4239 18.5954 22.8268 18.7692 23.2575 18.8127H23.6169C23.9843 18.8127 24.3478 18.7613 24.6994 18.6546C24.6125 18.8087 24.5059 18.9548 24.3913 19.0892C23.858 19.7094 23.0678 20.0492 22.25 20.0057H21.8984L21.8707 20.3573C21.8668 20.8512 22.0841 21.3173 22.4594 21.6373C22.5582 21.7243 22.6688 21.7954 22.7873 21.8507C22.2026 22.4196 21.8707 23.1978 21.8589 24.0156C21.8589 24.462 21.7562 24.9045 21.5626 25.3075L21.1675 25.9H21.8707C23.0323 25.9 23.9211 25.58 24.5375 24.944C24.8575 24.6082 25.0945 24.2013 25.2327 23.7588C25.4619 23.9524 25.7305 24.0868 26.0229 24.1539C26.1611 24.1855 26.3034 24.2013 26.4456 24.2013C26.6589 24.2013 26.8723 24.1736 27.0777 24.1262L27.528 24.0077L27.3305 23.5889C27.0816 22.9213 27.0816 22.1825 27.3305 21.5148C27.4767 21.0803 27.5794 20.63 27.6348 20.1716C27.9903 20.3534 28.3853 20.4443 28.7844 20.4403C29.4402 20.4482 30.0525 20.1243 30.408 19.5751L30.6253 19.18L30.2303 19.0141C28.9068 18.465 28.6145 16.9875 28.5552 16.1894C28.6856 16.2171 28.8159 16.2329 28.9503 16.2368L29.0609 16.3119C30.4989 16.3119 30.9809 14.8462 31.0007 14.783L31.1626 14.2655H30.6214C29.4836 14.226 28.4209 13.6887 27.7177 12.7919ZM29.0648 15.9129H29.0095C28.7211 15.9168 28.4367 15.8378 28.1918 15.6877C28.1918 15.6877 27.9823 18.544 30.1118 19.4289V19.4408C29.8313 19.8675 29.3493 20.1203 28.8396 20.1124C28.2629 20.148 27.7059 19.903 27.3424 19.4566C27.3543 20.1282 27.2436 20.7998 27.0184 21.4319C26.73 22.1944 26.73 23.0398 27.0184 23.8023C26.8407 23.8457 26.6629 23.8694 26.4811 23.8694C26.3705 23.8694 26.2559 23.8576 26.1493 23.83C25.6239 23.7035 25.2051 23.3164 25.0352 22.8067C25.0352 22.8067 25.1182 25.5484 21.9221 25.5484H21.8984C22.1394 25.0902 22.2659 24.5805 22.2619 24.063C22.4002 22.0364 23.775 21.748 23.775 21.748C23.3957 21.7005 23.0362 21.5662 22.7202 21.3529C22.4318 21.1119 22.2659 20.7564 22.2579 20.3811C23.1823 20.4205 24.0752 20.0373 24.6796 19.3341C25.0431 18.9193 25.2841 18.4136 25.3868 17.8724C24.8772 18.2556 24.2491 18.4492 23.613 18.4216H23.2891C22.9453 18.386 22.6175 18.2516 22.3527 18.0264C23.5695 17.2364 24.4229 15.8852 23.6683 13.8348C23.0599 12.1914 21.6021 10.9628 20.1364 10.0384C19.6505 9.73804 19.3582 9.39836 19.3582 9.10596C19.3582 8.4186 20.334 8.39884 20.737 7.92079C21.1992 7.38352 20.9107 6.51438 20.5078 5.9929C20.6223 5.97315 20.7409 5.96524 20.8555 5.96524C21.5152 5.95734 22.1513 6.22204 22.6096 6.69611C23.0757 7.13858 23.2535 7.80623 23.0757 8.42252L23.2891 8.46596C23.4194 8.48972 23.5498 8.50156 23.6841 8.50548H23.771C24.9286 8.50548 25.45 7.29265 25.45 7.29265C25.45 7.29265 26.6826 8.80972 24.8693 9.99484C24.5572 10.1964 24.4189 10.39 24.4743 10.5875L24.5019 10.7178L24.6323 10.7416C25.9478 11.0971 26.6076 12.0057 27.4253 13.0368C28.1996 14.0205 29.3691 14.6132 30.6214 14.6566H30.6451C30.6451 14.6566 30.25 15.9129 29.0648 15.9129Z" fill="#222220"></path>
<path d="M26.5284 10.607C26.9709 10.8598 27.3541 11.2036 27.6544 11.6144C27.8795 11.9621 28.1995 12.2386 28.5788 12.4046C28.7211 12.452 28.8751 12.4757 29.0252 12.4757C29.6297 12.4757 30.1827 12.132 30.4593 11.5946L30.6884 11.0811L30.1314 11.0495C29.5309 10.9389 28.9897 10.6307 28.5907 10.1685C28.2944 9.84849 27.8795 9.66281 27.4411 9.65889C27.1013 9.66281 26.7734 9.76553 26.489 9.94729L25.9754 10.3068L26.5284 10.607ZM27.4529 10.0421L27.4411 10.046C27.7768 10.046 28.0929 10.1922 28.3181 10.4411C28.7803 10.9705 29.4124 11.3221 30.1077 11.4366C29.8944 11.8357 29.4795 12.0846 29.0252 12.0885C28.9147 12.0885 28.804 12.0687 28.6974 12.0332C28.0574 11.8159 27.8322 10.848 26.722 10.2634C26.9393 10.1211 27.1922 10.046 27.4529 10.0421ZM26.7892 15.6994L26.7814 15.6914C26.4574 13.084 24.5651 11.1996 22.4594 10.0578C22.2658 9.95121 22.0841 9.86433 21.9103 9.78129C22.7794 9.95913 23.6841 9.74577 24.3833 9.20057C24.3833 9.20057 23.1626 10.0974 20.6658 9.28353C21.3571 9.73393 22.7003 10.366 23.929 11.3932C26.9947 14.0875 24.8021 16.7186 24.8021 16.7186C25.7187 15.8494 26.0387 14.5221 25.6278 13.329C26.2757 14.4075 26.5878 15.6559 26.5206 16.9122C26.4337 18.9823 25.2841 20.7917 24.0989 22.2337C23.7433 22.688 23.4984 23.2213 23.3957 23.7902C23.5971 23.2253 23.9014 22.7038 24.2964 22.2534C25.5803 20.7482 26.6668 19.1878 26.8208 16.9398C26.9552 17.3349 27.5003 18.4846 28.3695 18.9151C28.3695 18.9151 27.2791 18.2594 26.7892 15.6994ZM10.4337 25.335C10.2441 24.932 10.1414 24.4895 10.1374 24.0431C10.1255 23.2254 9.78977 22.447 9.20505 21.8782C9.32353 21.8229 9.43417 21.7518 9.53297 21.6649C9.90825 21.3449 10.1255 20.8786 10.1216 20.3849L10.0979 20.0332H9.74234C8.92849 20.0727 8.13841 19.737 7.60505 19.1167C7.49049 18.9824 7.38777 18.8362 7.2969 18.6822C7.64851 18.7888 8.01193 18.8402 8.37937 18.8402H8.73889C9.16953 18.7967 9.57641 18.6229 9.90433 18.3424L10.2717 18.0066L9.85297 17.7379C8.91273 17.1374 7.9527 15.9997 8.69145 14.0006C9.16953 12.7009 10.2717 11.5275 12.0692 10.3977C12.6737 10.0026 13.0055 9.56409 13.0055 9.13353C13.0055 8.46977 12.4485 8.20513 12.0416 8.01945C11.8559 7.9483 11.686 7.84559 11.5359 7.71522C11.2199 7.34782 11.4846 6.64855 11.7808 6.2693L12.1759 5.77546L11.5675 5.65695C11.4292 5.63325 11.2871 5.62534 11.1448 5.62534C10.3744 5.60164 9.63169 5.89794 9.08649 6.43917C8.64009 6.87769 8.40705 7.49398 8.45049 8.11817H8.21345C7.32456 8.11817 6.90579 7.17794 6.88999 7.13843L6.6411 6.54978L6.24604 7.04362C5.87863 7.52559 5.70876 8.13001 5.77592 8.73449C5.91024 9.40217 6.32505 9.97889 6.91765 10.3147C6.97295 10.3502 7.02826 10.3898 7.07567 10.4332C5.82727 10.8283 5.12802 11.729 4.3932 12.6654L4.28653 12.7997C3.58333 13.6965 2.51665 14.2338 1.37888 14.2732H0.837646L1.00357 14.7908C1.00357 14.854 1.50135 16.3197 2.94332 16.3197H3.01443C3.14876 16.3157 3.27913 16.2999 3.40949 16.2722C3.35024 17.0624 3.05789 18.5478 1.73049 19.097L1.33542 19.2629L1.5527 19.6579C1.90826 20.207 2.52061 20.531 3.17641 20.5231C3.57542 20.527 3.96653 20.4362 4.32209 20.2545C4.3774 20.7127 4.48011 21.1631 4.62629 21.5977C4.87517 22.2654 4.87517 23.0041 4.62629 23.6718L4.42876 24.0906L4.87913 24.209C5.08456 24.2565 5.29789 24.2841 5.51122 24.2841C5.65345 24.2841 5.79567 24.2683 5.93394 24.2367C6.22629 24.1695 6.49493 24.0352 6.72406 23.8416C6.86233 24.2841 7.09937 24.691 7.41937 25.0268C8.03962 25.6629 8.92849 25.9789 10.086 25.9829H10.7892L10.4337 25.335ZM10.0939 25.5562C6.89789 25.5562 6.9769 22.8145 6.9769 22.8145C6.80702 23.3241 6.38826 23.7113 5.86283 23.8377C5.75616 23.8654 5.64159 23.8772 5.53097 23.8772C5.34925 23.8772 5.17147 23.8535 4.99765 23.81C5.28604 23.0475 5.28604 22.2022 4.99765 21.4397C4.77245 20.8075 4.66579 20.1359 4.67765 19.4643C4.31419 19.9108 3.75715 20.1557 3.18036 20.1202H3.16061C2.64702 20.1281 2.16505 19.8713 1.88456 19.4446C4.01394 18.5597 3.80456 15.7034 3.80456 15.7034C3.55962 15.8535 3.27517 15.9325 2.98678 15.9286H2.94332C1.75813 15.9286 1.36308 14.6722 1.36308 14.6722H1.38678C2.63913 14.6327 3.81245 14.0402 4.58678 13.0565C5.40061 12.0254 6.06431 11.1167 7.37986 10.7611L7.51024 10.7374L7.53789 10.607C7.57345 10.4056 7.43517 10.212 7.14283 10.0145C5.32949 8.82929 6.56209 7.31226 6.56209 7.31226C6.56209 7.31226 7.07567 8.52513 8.24113 8.52513H8.29641C8.43074 8.52113 8.56113 8.50929 8.69145 8.48561L8.90481 8.44217C8.72305 7.82584 8.90481 7.15818 9.37097 6.71571C9.82922 6.24164 10.4653 5.97695 11.1251 5.98485C11.2396 5.98485 11.3582 5.99275 11.4727 6.0125C11.0776 6.53794 10.7853 7.40707 11.2475 7.94041C11.6426 8.40265 12.6223 8.42241 12.6223 9.12561C12.6223 9.41793 12.3498 9.75769 11.8639 10.0618C10.3942 10.9863 8.93641 12.215 8.33193 13.8584C7.5774 15.9088 8.43074 17.2718 9.64754 18.05C9.38282 18.2713 9.05489 18.4095 8.71121 18.4451H8.38329C7.74727 18.4727 7.11913 18.2792 6.60949 17.8959C6.71221 18.4372 6.9532 18.9429 7.3127 19.3577C7.91715 20.057 8.81393 20.4441 9.73841 20.4046C9.73049 20.7799 9.56458 21.1354 9.27618 21.3765C8.9601 21.5898 8.60057 21.7241 8.22137 21.7715C8.22137 21.7715 9.60009 22.052 9.75025 24.0866C9.74625 24.6041 9.87274 25.1138 10.1137 25.572L10.0939 25.5562Z" fill="#222220"></path>
<path d="M2.97099 12.4721H2.97493C3.12506 12.4721 3.27913 12.4484 3.42135 12.401C3.80061 12.235 4.12061 11.9586 4.34579 11.6109C4.64209 11.2 5.02531 10.8563 5.46777 10.6034L6.02086 10.3072L5.50728 9.94768C5.22283 9.76592 4.89493 9.6632 4.55913 9.65928C4.12061 9.6632 3.70579 9.84888 3.4095 10.1729C3.01444 10.6311 2.46925 10.9432 1.87271 11.0538L1.31567 11.0815L1.54086 11.595C1.8174 12.1324 2.36654 12.4682 2.97099 12.4721ZM3.68209 10.4415C3.90333 10.1926 4.21938 10.0464 4.55518 10.0464C4.81197 10.0504 5.06481 10.1294 5.28209 10.2677C4.16407 10.8642 3.93099 11.8202 3.30679 12.0375C3.20407 12.0731 3.09345 12.0929 2.98283 12.0929C2.52456 12.0929 2.10579 11.84 1.89247 11.437C2.58777 11.3225 3.21987 10.9709 3.68209 10.4415ZM5.48756 16.9284C5.4204 15.6721 5.72855 14.4237 6.3804 13.3452C5.96954 14.5382 6.28954 15.8657 7.20608 16.7348C7.20608 16.7348 5.00954 14.1037 8.07916 11.4094C9.3078 10.3822 10.6471 9.75016 11.3384 9.29976C8.84164 10.1136 7.6209 9.2168 7.6209 9.2168C8.32012 9.762 9.22092 9.97528 10.09 9.79752C9.9162 9.88048 9.73444 9.97136 9.54092 10.0741C7.43522 11.2198 5.53102 13.1042 5.21892 15.7116V15.6918C4.72904 18.2518 3.63867 18.9077 3.63867 18.9077C4.50386 18.481 5.05299 17.3274 5.18336 16.9323C5.32954 19.1842 6.42781 20.7447 7.71176 22.2459C8.10284 22.6963 8.411 23.2178 8.61252 23.7827C8.5058 23.2178 8.26092 22.6845 7.90139 22.2341C6.7162 20.7921 5.57052 18.9827 5.48756 16.9284ZM15.2772 12.1718C15.4154 12.0375 15.609 11.9743 15.8026 11.998V12.7446C15.7987 12.9303 15.7512 13.1082 15.6604 13.2701H16.407C16.3162 13.1082 16.2688 12.9303 16.2648 12.7446V11.998C16.4544 11.9743 16.648 12.0375 16.7863 12.1718V11.6543H15.2772V12.1718ZM14.9651 8.58864H14.9572C15.0717 8.68744 15.206 8.7664 15.3523 8.81384L15.4471 8.85728V8.36744L14.57 8C14.6135 8.24496 14.7557 8.45824 14.9651 8.58864ZM17.0471 8.58472L17.0431 8.58864C17.2525 8.45824 17.3947 8.24496 17.4382 8L16.5612 8.36744V8.85336L16.652 8.80984C16.7982 8.76248 16.9325 8.68344 17.0471 8.58472Z" fill="#222220"></path>
<path d="M18.6192 6.6056C18.6192 5.86683 17.3748 5.20312 16.0039 5.20312C14.633 5.20312 13.3886 5.86683 13.3886 6.6056L13.4162 6.78732L13.9654 9.9478L13.4162 10.2678L11.9822 11.0816C11.9822 11.0816 11.6622 11.2476 11.512 11.3464C10.9708 11.7414 10.8562 12.2708 11.1684 12.5C11.2473 11.9626 11.7175 11.5676 12.2627 11.5834C12.717 11.5952 13.1397 11.8244 13.3965 12.1996C13.4755 12.2945 13.5466 12.3972 13.6098 12.5C13.6928 12.6343 13.7757 12.7528 13.8587 12.8673H10.2004C10.5086 13.3967 10.6864 13.9932 10.7259 14.6056V22.732C10.7259 24.7073 12.2389 25.6357 13.8864 25.6357C15.1506 25.6357 15.3204 25.5764 16.0157 26.2718C16.7111 25.5764 16.8809 25.6357 18.1452 25.6357C19.7807 25.6357 21.3056 24.6994 21.3056 22.732V14.6135C21.3452 14.0012 21.5229 13.4046 21.8311 12.8752H18.1332C18.2162 12.7607 18.2992 12.6421 18.3822 12.5078C18.4493 12.4051 18.5204 12.3024 18.5955 12.2076C18.8562 11.8323 19.2789 11.6032 19.7332 11.5912C20.2784 11.5755 20.7486 11.9705 20.8276 12.5078C21.1436 12.2826 21.0291 11.7177 20.4839 11.3543C20.3377 11.2516 20.0177 11.0896 20.0177 11.0896L18.5955 10.252L18.0464 9.93204L18.5955 6.77152L18.6192 6.6056ZM13.918 6.96905L15.8459 7.6209V10.6471L14.4276 9.89644L13.918 6.96905ZM10.9905 13.4007H14.313C14.5698 13.6693 14.8859 13.8826 15.2336 14.0169C15.1584 14.2777 15.1782 14.5582 15.2849 14.8071C15.4113 15.0718 15.6365 15.2772 15.913 15.3839C15.9644 15.8382 16.2725 16.2175 16.7032 16.3676C16.4661 16.6086 16.233 16.8337 16.1382 16.9246L13.9298 16.8891C13.8548 16.8535 13.7955 16.7982 13.756 16.7271V16.6994L14.1155 16.7587H14.1392C14.2103 16.7587 14.2696 16.7112 14.2814 16.6402C14.2932 16.5612 14.2419 16.49 14.1629 16.4743L13.7204 16.4032L14.2103 14.7044L13.7441 13.7246L12.9975 14.5148L12.95 16.2807L12.4484 16.2016C12.3693 16.1859 12.2982 16.2372 12.2824 16.3162V16.3202C12.2705 16.3992 12.3219 16.4703 12.4009 16.4861L12.6103 16.5177C12.5352 16.5612 12.4839 16.5928 12.48 16.6007L12.4365 16.6323V16.6836C12.3377 17.134 12.5195 17.6002 12.8908 17.8688V17.932C12.8671 18.0861 12.9738 18.2323 13.1279 18.2599H13.1752C13.3056 18.2599 13.4202 18.1691 13.4479 18.0387C13.5427 18.0426 13.6336 18.0426 13.7284 18.0387H13.7876L16.6834 18.5641L16.7308 18.5325C16.96 18.3705 17.8409 17.7424 18.1293 17.5172C18.2123 17.5883 18.3071 17.6516 18.4059 17.6989C18.2716 18.1137 18.3743 18.568 18.6745 18.8841H11.2552V14.6135C11.2395 14.1987 11.1486 13.7878 10.9905 13.4007ZM17.8804 17.3078C17.5802 17.5291 16.8414 18.0664 16.5728 18.256L13.9456 17.7977V17.7266C13.9891 17.5488 14.0128 17.3671 14.0168 17.1853L16.2291 17.2209L16.2725 17.1775C16.3081 17.1419 17.0073 16.4664 17.3629 16.0752C17.4577 16.1937 17.5684 16.2925 17.6948 16.3716C17.6316 16.6955 17.6987 17.0312 17.8804 17.3078ZM13.4913 16.8337V16.8456C13.5506 16.9562 13.6375 17.051 13.7441 17.1143C13.7402 17.2762 13.7244 17.4343 13.6968 17.5923C13.6968 17.6278 13.6968 17.6634 13.6691 17.6989V17.7543C13.4873 17.7543 13.3096 17.7266 13.1357 17.6712C12.8197 17.5014 12.6419 17.1537 12.6932 16.7982C12.8355 16.6994 12.9975 16.6362 13.1673 16.6125C13.3136 16.6086 13.4439 16.6955 13.4913 16.8337ZM13.2187 16.3083L13.2622 14.6372L13.6572 14.2421L13.8982 14.7439L13.4281 16.3716L13.2187 16.3083ZM17.8607 25.1103H17.4814L17.7777 24.1424C17.8252 24.008 17.5802 23.8342 17.4775 23.6802C17.7184 23.8264 17.9673 23.9567 18.2241 24.0752C18.2241 24.1068 17.8607 25.1103 17.8607 25.1103ZM18.876 24.0278L18.8444 24.0002L18.6389 25.0668C18.5086 25.0668 18.3703 25.0945 18.2439 25.1024L18.4612 24.0752C18.5244 23.771 17.7066 23.6802 17.3036 23.0757C17.0389 23.2969 16.6992 23.3996 16.3595 23.3641C16.0592 23.3602 15.7629 23.3285 15.4705 23.2693C15.4192 23.2653 15.3679 23.2653 15.3165 23.2693C15.194 23.2614 15.0755 23.3246 15.0123 23.4312L14.953 23.53L13.8271 23.2575L13.5584 23.7236C13.515 23.7868 13.5229 23.8737 13.5782 23.9291L13.6532 24.012C13.5782 24.1582 13.4834 24.2925 13.3688 24.4071L13.2029 24.2016C13.0765 23.9962 13.0884 23.7316 13.2306 23.538L13.673 22.7912L14.6172 22.9335L14.4711 22.5977C14.2736 22.1552 14.5738 21.5903 14.6054 21.2664C14.6054 21.3651 14.5027 21.3848 14.4 21.3848H14.1273C14.1076 21.3809 14.0839 21.3809 14.0641 21.3848L13.8073 21.5389L13.6059 21.3532C13.5743 21.294 13.5861 21.2229 13.6336 21.1794L14.0997 20.654L13.5466 20.01L14.3368 20.4051L14.5738 20.1207C14.637 20.1839 14.6093 20.3498 14.6093 20.3498C15.1822 20.492 15.5812 21.0135 15.5654 21.6061V21.7207C15.6444 21.8471 15.7708 21.934 15.913 21.9696L16.9836 22.0762C17.197 22.0091 17.4143 21.9656 17.6355 21.938C17.8252 21.938 18.0148 21.9972 18.1728 22.0999C18.2479 22.0486 18.3387 22.0169 18.4296 22.013H18.4652C18.9432 22.013 19.1446 22.4476 19.4014 22.8032C19.595 23.0757 19.8557 23.4866 19.8557 23.4866C19.7807 23.5972 19.6582 23.6644 19.5239 23.6644C19.4765 23.6683 19.433 23.6683 19.3856 23.6644C18.872 23.5696 18.797 22.5108 18.5046 22.4278H18.4572C18.4019 22.4278 18.3506 22.4594 18.3229 22.5108C18.4572 22.8703 18.3782 23.0164 18.5244 23.3009C18.6311 23.4708 18.7654 23.6248 18.9195 23.7552C18.9195 23.7552 18.8997 23.9132 18.876 24.0278ZM13.12 22.9928H13.112L13.1595 23.1152C13.1279 23.2219 12.7644 23.376 12.7644 23.376L12.6854 23.2021C12.5827 22.9532 12.6577 22.6688 12.875 22.5068L13.4716 22.1434L14.1076 22.2777C14.1036 22.4041 14.1432 22.5266 14.2182 22.6293L13.5505 22.5029L13.1555 22.7794C13.0923 22.8348 13.0804 22.9216 13.12 22.9928ZM20.7604 22.736C20.8039 23.8343 20.0414 24.7982 18.9629 25.0116L19.1446 24.0555C19.1446 24.0002 19.1644 23.933 19.1723 23.8777C19.2276 23.9014 19.2829 23.9172 19.3382 23.9291C19.4014 23.933 19.4646 23.933 19.5279 23.9291C19.7452 23.9291 19.9506 23.8303 20.0809 23.6564L20.2232 23.4905L20.1046 23.3286C20.1046 23.3286 19.84 22.9098 19.6424 22.6332L19.5318 22.4673C19.3105 22.1355 19.03 21.7167 18.473 21.7167H18.4216C18.3427 21.7207 18.2597 21.7364 18.1846 21.7641C18.0148 21.6812 17.8291 21.6377 17.6395 21.6377C17.4498 21.6416 17.2602 21.6772 17.0824 21.7444L16.9876 21.772L15.9446 21.6693C15.9012 21.6496 15.8656 21.618 15.838 21.5784L16.0632 21.4876C16 20.733 15.273 20.2708 14.878 20.1167C14.8582 20.0337 14.8187 19.9626 14.7595 19.9034L14.5343 19.69L14.3368 19.9271L14.238 20.0456L12.7762 19.4451L13.7284 20.6303L13.353 21.1992C13.274 21.2782 13.27 21.4086 13.353 21.4916L13.7481 21.7602L14.1432 21.61H14.1827C14.1827 21.6693 14.1392 21.9103 14.1195 21.9775L13.432 21.8589L12.6972 22.254C12.3575 22.4989 12.2389 22.9493 12.4168 23.3286L12.4997 23.5064L12.6143 23.7592L12.8711 23.6525C12.7762 23.9093 12.8157 24.1937 12.9816 24.411L13.1357 24.6086L13.3412 24.8693L13.5703 24.6244C13.7204 24.4743 13.8389 24.3004 13.9219 24.1068L13.9693 23.9488L13.8587 23.8264V23.8026L13.9852 23.5972L14.8977 23.8105L15.1032 23.858L15.2138 23.6762L15.273 23.5775C15.273 23.5577 15.273 23.5537 15.3284 23.5537H15.4271C15.7392 23.6169 16.0552 23.6486 16.3713 23.6525C16.5846 23.6644 16.798 23.6407 17.0034 23.5775L17.5091 24.1543L17.2088 25.0787V25.134C16.7584 25.1261 16.3279 25.3118 16.0236 25.6396C15.5377 25.1577 15.194 25.1064 13.8943 25.1064C12.3338 25.1064 11.2789 24.1937 11.2789 22.736V19.1804H20.7604V22.736ZM21.0172 13.4007C20.8552 13.7839 20.7684 14.1948 20.7525 14.6135V17.2762C20.4088 17.2012 20.152 16.9088 20.1284 16.5572V16.4348H20.0098C19.8044 16.4189 19.6148 16.3241 19.4725 16.178C19.2987 15.9764 19.2039 15.7236 19.2 15.4589C19.03 15.7355 19.0459 16.091 19.2434 16.3518C19.3975 16.5453 19.6227 16.6757 19.8676 16.7073C19.9387 17.1656 20.3061 17.5212 20.7644 17.5804V18.8841H19.1052C18.6706 18.6629 18.4888 18.1453 18.6824 17.6989L18.7456 17.5567L18.5995 17.5014C18.1254 17.3355 17.8646 16.8259 18.0148 16.3439L18.0464 16.2253L17.9357 16.174C17.5209 15.933 17.2918 15.4629 17.3589 14.9888C17.1416 15.21 17.0864 15.5459 17.2246 15.8224C17.1456 15.9132 17.0429 16.0199 16.9284 16.1384C16.5136 16.0516 16.2132 15.692 16.1975 15.2693V15.1705L16.1066 15.135C15.8656 15.0639 15.6681 14.898 15.5536 14.6767C15.4784 14.495 15.4627 14.2896 15.514 14.0999C15.593 14.1157 15.672 14.1276 15.7511 14.1355C15.83 14.1394 15.913 14.1394 15.992 14.1355C16.632 14.1355 17.2404 13.8589 17.6671 13.3848L21.0172 13.4007ZM18.4572 10.7064L19.1052 11.1014L19.2671 11.1962C18.9313 11.2871 18.6271 11.4688 18.3861 11.7216L18.3584 11.7453C18.3032 11.8046 18.2518 11.8639 18.2004 11.9271L18.1688 11.9666C18.1175 12.0298 18.07 12.0969 18.0266 12.168L18.0029 12.2036C17.9476 12.2826 17.8962 12.3696 17.8449 12.4564C17.4854 13.1716 16.7861 13.6496 15.992 13.7286C15.198 13.6496 14.4987 13.1716 14.1392 12.4564C14.0879 12.3696 14.0365 12.2866 13.9852 12.2036L13.9536 12.1602L13.8271 11.9548L13.7916 11.9112C13.7402 11.848 13.6888 11.7888 13.6375 11.7335L13.6098 11.7059C13.3688 11.453 13.0646 11.2712 12.7288 11.1804L12.8948 11.0856L13.5466 10.6905L14.2143 10.2955L15.996 11.2634L17.7777 10.3271L18.4572 10.7064ZM17.5802 9.9162L16.1619 10.6629V7.62485L18.0859 6.973L17.5802 9.9162ZM16 7.30485L13.8903 6.45942C14.0681 6.03276 14.8977 5.6693 16 5.6693C17.1022 5.6693 17.9318 6.03276 18.1096 6.45942L16 7.30485Z" fill="#222220"></path>
</svg>